#!OML:ASF F:\VICON\USERDATA\INSTALL\rory3\rory3.ASF
:FULLY-SPECIFIED
:DEGREES
644
root 2.71704 10.1376 -4.4616 -11.1736 -49.4869 4.12828
lowerback 31.8917 1.46268 -0.310704
upperback 12.222 1.16998 1.69098
thorax -3.58311 0.226202 1.68644
lowerneck -15.6195 -0.638866 -10.208
upperneck 27.9364 1.72394 0.044929
head 11.6962 -0.391564 1.98005
rclavicle -3.33958e-014 2.46493e-014
rhumerus -31.1953 20.6609 -84.6734
rradius 106.436
rwrist 44.213
rhand -40.9117 13.9746
rfingers 7.12502
rthumb -13.8466 -15.5445
lclavicle -3.33958e-014 2.46493e-014
lhumerus -28.5328 -24.0263 87.9326
lradius 95.6526
lwrist -25.8226
lhand -43.1556 10.3374
lfingers 7.12502
lthumb -16.0082 39.696
rfemur -81.8094 -17.9375 11.2652
rtibia 111.189
rfoot -11.2333 10.4531
rtoes -2.33016
lfemur -84.4256 14.6064 -22.2264
ltibia 97.2532
lfoot -1.31861 -12.4729
ltoes -1.3655
645
root 2.70567 10.1407 -4.44067 -10.4728 -49.493 4.09534
lowerback 31.8923 1.39165 -0.0820542
upperback 12.2278 1.14867 1.7326
thorax -3.57209 0.221296 1.60793
lowerneck -15.7733 -0.594167 -10.2525
upperneck 27.9606 1.82788 0.0288151
head 11.7313 -0.352951 1.99756
rclavicle 3.49861e-014 -3.65764e-014
rhumerus -31.3528 20.5553 -84.5799
rradius 106.778
rwrist 44.7171
rhand -41.0783 13.7151
rfingers 7.12502
rthumb -14.0071 -15.793
lclavicle 3.49861e-014 -3.65764e-014
lhumerus -28.8544 -24.1739 87.9516
lradius 96.1883
lwrist -25.7506
lhand -43.5118 10.4277
lfingers 7.12502
lthumb -16.3512 39.7584
rfemur -82.2641 -18.1376 11.5645
rtibia 110.889
rfoot -11.6738 10.7668
rtoes -2.40756
lfemur -85.1612 14.3678 -22.317
ltibia 97.3128
lfoot -1.62004 -12.2977
ltoes -1.95399
646
root 2.69317 10.1418 -4.43312 -9.85212 -49.6819 4.02426
lowerback 31.9647 1.43042 0.0860864
upperback 12.3547 1.23114 1.73616
thorax -3.4574 0.260822 1.48747
lowerneck -15.8745 -0.528129 -10.0263
upperneck 27.7965 1.88731 -0.0302883
head 11.6844 -0.300979 1.94547
rclavicle -1.70955e-014 1.03368e-014
rhumerus -31.3932 20.3386 -84.5688
rradius 107.212
rwrist 45.1737
rhand -41.1912 13.7169
rfingers 7.12502
rthumb -14.1159 -15.7836
lclavicle -1.70955e-014 1.03368e-014
lhumerus -28.9327 -24.4635 87.7682
lradius 96.5976
lwrist -25.7321
lhand -43.9905 10.2243
lfingers 7.12502
lthumb -16.812 39.5165
rfemur -82.7355 -18.0249 11.9624
rtibia 110.683
rfoot -12.3095 10.6376
rtoes -3.19661
lfemur -85.8105 14.4355 -22.3032
ltibia 97.4142
lfoot -1.8936 -12.2137
ltoes -2.21126
647
root 2.67786 10.143 -4.41747 -9.21422 -49.7867 3.99642
lowerback 32.1138 1.42277 0.158536
upperback 12.337 1.24685 1.83175
thorax -3.54364 0.266812 1.5464
lowerneck -15.7983 -0.418909 -10.0034
upperneck 27.5661 2.05187 -0.140345
head 11.5726 -0.226869 1.92102
rclavicle 6.08281e-014 -5.56597e-014
rhumerus -31.6691 20.3585 -84.4262
rradius 107.742
rwrist 45.6098
rhand -41.339 13.6325
rfingers 7.12502
rthumb -14.2583 -15.858
lclavicle 6.08281e-014 -5.56597e-014
lhumerus -29.2938 -24.469 87.8914
lradius 96.887
lwrist -25.928
lhand -44.4921 9.96075
lfingers 7.12502
lthumb -17.2949 39.2112
rfemur -83.3989 -18.1614 12.3973
rtibia 110.648
rfoot -12.7491 10.4464
rtoes -3.78327
lfemur -86.4702 14.4301 -22.4031
ltibia 97.5152
lfoot -1.8567 -12.0424
ltoes -1.50752
648
root 2.66181 10.1493 -4.40152 -8.6232 -49.8796 3.98839
lowerback 32.1659 1.39105 0.246467
upperback 12.4263 1.22535 1.88467
thorax -3.46247 0.253401 1.56209
lowerneck -15.8448 -0.333951 -9.90574
upperneck 27.3696 2.19428 -0.305611
head 11.5022 -0.163916 1.86182
rclavicle 1.145e-013 -8.26944e-014
rhumerus -31.8235 20.372 -84.4185
rradius 108.258
rwrist 46.2572
rhand -41.7433 13.5976
rfingers 7.12502
rthumb -14.6478 -15.865
lclavicle 1.145e-013 -8.26944e-014
lhumerus -29.5178 -24.4339 87.8255
lradius 97.3123
lwrist -26.0316
lhand -44.9546 9.71951
lfingers 7.12502
lthumb -17.7399 38.9303
rfemur -84.09 -18.3019 12.8576
rtibia 110.735
rfoot -13.1733 10.3356
rtoes -4.5181
lfemur -87.084 14.4438 -22.5245
ltibia 97.6066
lfoot -1.93484 -11.8948
ltoes -1.5584
649
root 2.64256 10.1556 -4.38535 -8.08893 -49.9116 3.97209
lowerback 32.4486 1.40024 0.263463
upperback 12.4323 1.24575 2.00724
thorax -3.58132 0.257543 1.68159
lowerneck -15.9867 -0.247677 -9.70655
upperneck 27.3751 2.35725 -0.577731
head 11.5318 -0.105827 1.75194
rclavicle 4.13472e-014 -8.74653e-014
rhumerus -32.136 20.4094 -84.304
rradius 108.867
rwrist 46.9787
rhand -42.0934 13.519
rfingers 7.12502
rthumb -14.9852 -15.9188
lclavicle 4.13472e-014 -8.74653e-014
lhumerus -29.9261 -24.5169 87.9335
lradius 97.79
lwrist -26.3224
lhand -45.1264 10.3334
lfingers 7.12502
lthumb -17.9052 39.5291
rfemur -84.725 -18.4305 13.237
rtibia 110.868
rfoot -13.4171 10.3245
rtoes -4.52575
lfemur -87.6156 14.3853 -22.6169
ltibia 97.6973
lfoot -2.08966 -11.8049
ltoes -2.17367
650
root 2.62372 10.1616 -4.36938 -7.47721 -49.9418 3.93168
lowerback 32.5909 1.39859 0.384176
upperback 12.4804 1.2785 2.09735
thorax -3.58778 0.271568 1.70126
lowerneck -16.0742 -0.186901 -9.53597
upperneck 27.2636 2.45281 -0.746421
head 11.5062 -0.0610418 1.67441
rclavicle 4.53229e-014 -1.11319e-014
rhumerus -32.4863 20.4128 -84.1523
rradius 109.587
rwrist 47.711
rhand -42.5891 13.5374
rfingers 7.12502
rthumb -15.4627 -15.8642
lclavicle 4.53229e-014 -1.11319e-014
lhumerus -30.2659 -24.7346 88.0248
lradius 98.2119
lwrist -26.5825
lhand -45.5929 10.6527
lfingers 7.12502
lthumb -18.3541 39.8068
rfemur -85.4302 -18.4956 13.5577
rtibia 110.976
rfoot -13.6372 10.2427
rtoes -5.12717
lfemur -88.2014 14.2483 -22.6352
ltibia 97.7638
lfoot -2.0345 -11.5099
ltoes -1.17304
651
root 2.60169 10.1712 -4.35435 -6.90017 -49.981 3.9627
lowerback 32.6936 1.3919 0.399848
upperback 12.5495 1.26994 2.151
thorax -3.55334 0.262972 1.75519
lowerneck -16.156 -0.0820962 -9.3638
upperneck 27.0969 2.58908 -0.852087
head 11.4544 0.0128117 1.62529
rclavicle 9.14409e-014 -4.21423e-014
rhumerus -32.8145 20.4236 -84.1053
rradius 110.32
rwrist 48.379
rhand -43.0709 13.3365
rfingers 7.12502
rthumb -15.9266 -16.0286
lclavicle 9.14409e-014 -4.21423e-014
lhumerus -30.618 -24.791 88.0231
lradius 98.6726
lwrist -26.8197
lhand -46.1958 10.7715
lfingers 7.12502
lthumb -18.934 39.8699
rfemur -86.1035 -18.4964 13.7732
rtibia 111.05
rfoot -13.8451 10.0114
rtoes -5.66292
lfemur -88.771 14.0894 -22.6389
ltibia 97.7977
lfoot -1.96617 -11.182
ltoes -0.198836
652
root 2.5792 10.1851 -4.34135 -6.42864 -50.0286 4.0428
lowerback 32.8593 1.35584 0.374394
upperback 12.6679 1.20502 2.17838
thorax -3.48778 0.223939 1.82299
lowerneck -16.3027 0.0595498 -9.28012
upperneck 26.9211 2.81673 -0.981018
head 11.409 0.115244 1.5956
rclavicle -2.78299e-014 1.03368e-014
rhumerus -32.9829 20.5165 -84.1144
rradius 111.007
rwrist 48.74
rhand -43.4302 13.185
rfingers 7.12502
rthumb -16.2726 -16.1521
lclavicle -2.78299e-014 1.03368e-014
lhumerus -30.9453 -24.5493 87.9832
lradius 99.2137
lwrist -27.3488
lhand -46.7252 11.3019
lfingers 7.12502
lthumb -19.4431 40.3498
rfemur -86.6483 -18.4787 13.9302
rtibia 111.095
rfoot -14.1679 9.66857
rtoes -6.57912
lfemur -89.2037 13.9907 -22.6889
ltibia 97.8014
lfoot -2.00956 -10.8897
ltoes 0.243313
653
root 2.55692 10.2 -4.32815 -5.83241 -50.0729 4.03835
lowerback 33.0494 1.30546 0.326868
upperback 12.6908 1.12919 2.27203
thorax -3.54358 0.179715 1.98167
lowerneck -16.1728 0.221554 -9.32064
upperneck 26.5996 3.0612 -1.09885
head 11.252 0.223287 1.589
rclavicle -3.10104e-014 -1.74931e-014
rhumerus -33.4469 20.8008 -84.0849
rradius 111.873
rwrist 48.689
rhand -43.7848 13.2779
rfingers 7.12502
rthumb -16.614 -16.031
lclavicle -3.10104e-014 -1.74931e-014
lhumerus -31.595 -24.079 88.2791
lradius 99.9146
lwrist -27.8599
lhand -47.0731 11.6881
lfingers 7.12502
lthumb -19.7775 40.7019
rfemur -87.1811 -18.4215 14.0767
rtibia 111.121
rfoot -14.498 9.57208
rtoes -7.04522
lfemur -89.7356 13.9634 -22.7628
ltibia 97.8379
lfoot -2.27819 -10.7545
ltoes -0.309041
